<svg width="24" height="24" viewBox="0 0 24 24" fill="none" xmlns="http://www.w3.org/2000/svg">
<path fill-rule="evenodd" clip-rule="evenodd" d="M2 4.64001C2 2.98316 3.34315 1.64001 5 1.64001H19C20.6569 1.64001 22 2.98316 22 4.64001V20.5594C22 21.3979 21.0301 21.8641 20.3753 21.3403L17.6247 19.1398C17.2595 18.8476 16.7405 18.8476 16.3753 19.1398L12.6247 22.1403C12.2595 22.4324 11.7405 22.4324 11.3753 22.1403L7.6247 19.1398C7.25948 18.8476 6.74052 18.8476 6.37531 19.1398L3.6247 21.3403C2.96993 21.8641 2 21.3979 2 20.5594V4.64001ZM6.5 6.39001C6.5 5.9758 6.83579 5.64001 7.25 5.64001H16.75C17.1642 5.64001 17.5 5.9758 17.5 6.39001C17.5 6.80423 17.1642 7.14001 16.75 7.14001H7.25C6.83579 7.14001 6.5 6.80423 6.5 6.39001ZM8.75 9.64001C8.33579 9.64001 8 9.9758 8 10.39C8 10.8042 8.33579 11.14 8.75 11.14H15.25C15.6642 11.14 16 10.8042 16 10.39C16 9.9758 15.6642 9.64001 15.25 9.64001H8.75Z" fill="#9FABC0"/>
</svg>
