<svg width="24" height="24" viewBox="0 0 24 24" fill="none" xmlns="http://www.w3.org/2000/svg">
<path fill-rule="evenodd" clip-rule="evenodd" d="M12 3.44255C14.8947 1.40003 18.6463 1.52799 20.9395 3.82891C23.6868 6.58263 23.6868 11.0639 20.9395 13.8176L13.3234 21.4512C12.9698 21.8056 12.5009 22 12 22C11.4991 22 11.0302 21.8056 10.6766 21.4512L3.06054 13.8176C0.313152 11.0614 0.313152 6.58017 3.06054 3.82645C5.35372 1.52799 9.10284 1.39757 12 3.44255ZM7.23716 6.21152C7.63012 6.08053 7.84249 5.65579 7.7115 5.26283C7.58051 4.86988 7.15577 4.65751 6.76282 4.78849C4.80447 5.44128 3.70121 7.89715 4.27239 10.1819C4.37286 10.5838 4.78006 10.8281 5.1819 10.7276C5.58375 10.6272 5.82807 10.2199 5.72761 9.8181C5.2988 8.10286 6.19553 6.55873 7.23716 6.21152Z" fill="#9FABC0"/>
</svg>
