<svg width="24" height="24" viewBox="0 0 24 24" fill="none" xmlns="http://www.w3.org/2000/svg">
<path fill-rule="evenodd" clip-rule="evenodd" d="M1.5 6C1.5 3.79086 3.29086 2 5.5 2H18.5C20.7091 2 22.5 3.79086 22.5 6V15C22.5 17.2091 20.7091 19 18.5 19H10.8094L9.36602 21.5C8.98112 22.1667 8.01887 22.1667 7.63397 21.5L6.19059 19H5.5C3.29086 19 1.5 17.2091 1.5 15V6ZM7.57354 10.2272C7.42286 9.84134 6.98793 9.65071 6.6021 9.80139C6.21626 9.95207 6.02563 10.387 6.17631 10.7728C7.08498 13.0996 9.34882 14.75 12 14.75C14.6511 14.75 16.915 13.0996 17.8237 10.7728C17.9743 10.387 17.7837 9.95207 17.3979 9.80139C17.012 9.65071 16.5771 9.84134 16.4264 10.2272C15.735 11.9978 14.0128 13.25 12 13.25C9.98718 13.25 8.26501 11.9978 7.57354 10.2272Z" fill="#9FABC0"/>
</svg>
