<svg width="24" height="24" viewBox="0 0 24 24" fill="none" xmlns="http://www.w3.org/2000/svg">
<path fill-rule="evenodd" clip-rule="evenodd" d="M13.8868 2.38138C12.7864 1.4912 11.2136 1.4912 10.1132 2.38138L3.11319 8.04416C2.40911 8.61374 2 9.4709 2 10.3765L2 19.0341C2 20.6909 3.34314 22.0341 5 22.0341H19C20.6569 22.0341 22 20.6909 22 19.0341L22 10.3765C22 9.4709 21.5909 8.61374 20.8868 8.04416L13.8868 2.38138ZM12 13C11.5858 13 11.25 13.3358 11.25 13.75V17.25C11.25 17.6642 11.5858 18 12 18C12.4142 18 12.75 17.6642 12.75 17.25V13.75C12.75 13.3358 12.4142 13 12 13Z" fill="#9FABC0"/>
</svg>
