<svg width="24" height="24" viewBox="0 0 24 24" fill="none" xmlns="http://www.w3.org/2000/svg">
<path fill-rule="evenodd" clip-rule="evenodd" d="M1.5 5.5C1.5 3.84315 2.84315 2.5 4.5 2.5H19.5C21.1569 2.5 22.5 3.84315 22.5 5.5V8.5H17C15.3431 8.5 14 9.84315 14 11.5V12.5C14 14.1569 15.3431 15.5 17 15.5H22.5V18.5C22.5 20.1569 21.1569 21.5 19.5 21.5H4.5C2.84315 21.5 1.5 20.1569 1.5 18.5V5.5ZM15.5 12C15.5 10.8954 16.3954 10 17.5 10H22.5V14H17.5C16.3954 14 15.5 13.1046 15.5 12ZM18.5 12C18.5 12.4142 18.1642 12.75 17.75 12.75C17.3358 12.75 17 12.4142 17 12C17 11.5858 17.3358 11.25 17.75 11.25C18.1642 11.25 18.5 11.5858 18.5 12Z" fill="#9FABC0"/>
</svg>
